<svg xmlns="http://www.w3.org/2000/svg" viewBox="0 0 295 295" width="295" height="295">
	<style>
		tspan { white-space:pre }
		.shp0 { fill: #cf0a2c } 
	</style>
	<path id="Layer" fill-rule="evenodd" class="shp0" d="M294.98 127C295.24 132.62 293.12 138.09 289.14 142.07L142.07 289.14C138.17 293.05 133.05 295 127.93 295C122.81 295 117.69 293.05 113.79 289.14L5.86 181.22C2.11 177.46 0 172.38 0 167.07C0 161.77 2.11 156.68 5.86 152.93L152.93 5.86C156.91 1.88 162.38 -0.25 168 0.02L271.11 4.85C281.42 5.33 289.67 13.58 290.16 23.89L294.98 127ZM252.48 42.52C243.21 33.25 228.18 33.25 218.91 42.52C209.64 51.79 209.64 66.82 218.91 76.09C228.18 85.36 243.21 85.36 252.48 76.09C261.75 66.82 261.75 51.79 252.48 42.52Z" />
	<g id="Layer">
	</g>
	<g id="Layer">
	</g>
	<g id="Layer">
	</g>
	<g id="Layer">
	</g>
	<g id="Layer">
	</g>
	<g id="Layer">
	</g>
	<g id="Layer">
	</g>
	<g id="Layer">
	</g>
	<g id="Layer">
	</g>
	<g id="Layer">
	</g>
	<g id="Layer">
	</g>
	<g id="Layer">
	</g>
	<g id="Layer">
	</g>
	<g id="Layer">
	</g>
	<g id="Layer">
	</g>
</svg>