<?xml version="1.0" encoding="UTF-8"?>
<svg width="21px" height="30px" viewBox="0 0 21 30" version="1.1" xmlns="http://www.w3.org/2000/svg" xmlns:xlink="http://www.w3.org/1999/xlink">
    <!-- Generator: Sketch 56 (81588) - https://sketch.com -->
    <title>placeholder-svg</title>
    <desc>Created with Sketch.</desc>
    <g id="Page-1" stroke="none" stroke-width="1" fill="none" fill-rule="evenodd">
        <g id="Artboard" transform="translate(-34.000000, -764.000000)" fill="#CF0A2C">
            <g id="placeholder-svg" transform="translate(34.000000, 764.000000)">
                <g id="Layer">
                    <g>
                        <path d="M21,10.546875 C21,12.4535156 20.4878333,14.3220703 19.5189167,15.9503906 L11.3965833,29.5728516 C11.2396667,29.8359375 10.9579167,29.9976562 10.6528333,30 C10.6505,30 10.6481667,30 10.6458333,30 C10.3430833,30 10.0619167,29.8429688 9.90208333,29.5845703 L1.56741667,16.0927734 C0.541916667,14.4292969 0,12.5115234 0,10.546875 C0,4.73144531 4.71041667,0 10.5,0 C16.2895833,0 21,4.73144531 21,10.546875 Z M19.2558333,10.546875 C19.2558333,5.70058594 15.32475,1.74609375 10.5,1.74609375 C5.67525,1.74609375 1.73833333,5.70058594 1.73833333,10.546875 C1.73833333,12.1845703 2.20091667,13.7818359 3.05491667,15.1669922 L10.6324167,27.4330078 L18.0174167,15.0480469 C18.8235833,13.6927734 19.2558333,12.1359375 19.2558333,10.546875 Z"></path>
                    </g>
                </g>
                <g id="Layer" transform="translate(5.000000, 5.000000)">
                    <g>
                        <path d="M11,5 C11,7.70944444 8.61055556,10 5.5,10 C2.42733333,10 0,7.73944444 0,5 C0,2.24277778 2.46705556,0 5.5,0 C8.53294444,0 11,2.24277778 11,5 Z M9.17277778,5 C9.17277778,3.16222222 7.52155556,1.65555556 5.5,1.65555556 C3.47844444,1.65555556 1.82111111,3.16222222 1.82111111,5 C1.82111111,6.84277778 3.46744444,8.34444444 5.5,8.34444444 C7.56433333,8.34444444 9.17277778,6.81555556 9.17277778,5 Z"></path>
                    </g>
                </g>
            </g>
        </g>
    </g>
</svg>